<svg xmlns="http://www.w3.org/2000/svg" xmlns:xlink="http://www.w3.org/1999/xlink" aria-hidden="true" focusable="false" width="1em" height="1em" style="vertical-align: -0.125em;-ms-transform: rotate(360deg); -webkit-transform: rotate(360deg); transform: rotate(360deg);" preserveAspectRatio="xMidYMid meet" viewBox="0 0 24 24" class="iconify" data-icon="bx:bx-dots-vertical-rounded" data-inline="true"><path d="M12 10c-1.1 0-2 .9-2 2s.9 2 2 2s2-.9 2-2s-.9-2-2-2zm0-6c-1.1 0-2 .9-2 2s.9 2 2 2s2-.9 2-2s-.9-2-2-2zm0 12c-1.1 0-2 .9-2 2s.9 2 2 2s2-.9 2-2s-.9-2-2-2z" fill="currentColor"></path></svg>